<?xml version="1.0" encoding="UTF-8" standalone="no"?>
<!DOCTYPE svg PUBLIC "-//W3C//DTD SVG 1.1//EN"
 "http://www.w3.org/Graphics/SVG/1.1/DTD/svg11.dtd">
<!-- Generated by graphviz version 2.38.0 (20140413.2041)
 -->
<!-- Title: phpListDomainModel Pages: 1 -->
<svg width="1851pt" height="413pt"
 viewBox="0.00 0.00 1851.00 413.00" xmlns="http://www.w3.org/2000/svg" xmlns:xlink="http://www.w3.org/1999/xlink">
<g id="graph0" class="graph" transform="scale(1 1) rotate(0) translate(4 409)">
<title>phpListDomainModel</title>
<polygon fill="white" stroke="none" points="-4,4 -4,-409 1847,-409 1847,4 -4,4"/>
<g id="clust1" class="cluster"><title>clusterIdentityContext</title>
<polygon fill="#f2f2f2" stroke="#00ff00" points="970,-230 970,-397 1384,-397 1384,-230 970,-230"/>
<text text-anchor="middle" x="1177" y="-386.6" font-family="Bitstream Vera Sans, Arial" font-size="8.00">IdentityContext</text>
</g>
<g id="clust2" class="cluster"><title>clusterSubscriptionContext</title>
<polygon fill="#f2f2f2" stroke="#00ff00" points="8,-8 8,-300 330,-300 330,-8 8,-8"/>
<text text-anchor="middle" x="169" y="-289.6" font-family="Bitstream Vera Sans, Arial" font-size="8.00">SubscriptionContext</text>
</g>
<g id="clust3" class="cluster"><title>clusterMessagingContext</title>
<polygon fill="#f2f2f2" stroke="#00ff00" points="506,-82 506,-397 962,-397 962,-82 506,-82"/>
<text text-anchor="middle" x="734" y="-386.6" font-family="Bitstream Vera Sans, Arial" font-size="8.00">MessagingContext</text>
</g>
<g id="clust4" class="cluster"><title>clusterSystemContext</title>
<polygon fill="#f2f2f2" stroke="#00ff00" points="1392,-327 1392,-397 1835,-397 1835,-327 1392,-327"/>
<text text-anchor="middle" x="1613.5" y="-386.6" font-family="Bitstream Vera Sans, Arial" font-size="8.00">SystemContext</text>
</g>
<g id="clust5" class="cluster"><title>clusterTrackingContext</title>
<polygon fill="#f2f2f2" stroke="#00ff00" points="372,-82 372,-300 498,-300 498,-82 372,-82"/>
<text text-anchor="middle" x="435" y="-289.6" font-family="Bitstream Vera Sans, Arial" font-size="8.00">Tracking Context</text>
</g>
<!-- Administrator -->
<g id="node1" class="node"><title>Administrator</title>
<polygon fill="none" stroke="black" points="981,-238.5 981,-274.5 1055,-274.5 1055,-238.5 981,-238.5"/>
<text text-anchor="middle" x="1018" y="-254.6" font-family="Bitstream Vera Sans, Arial" font-size="8.00">Administrator</text>
</g>
<!-- Attribute -->
<g id="node2" class="node"><title>Attribute</title>
<polygon fill="none" stroke="black" points="1266,-335.5 1266,-371.5 1376,-371.5 1376,-335.5 1266,-335.5"/>
<text text-anchor="middle" x="1321" y="-351.6" font-family="Bitstream Vera Sans, Arial" font-size="8.00">AdministratorAttribute</text>
</g>
<!-- AdministratorPasswordRequest -->
<g id="node3" class="node"><title>AdministratorPasswordRequest</title>
<polygon fill="none" stroke="black" points="1096.5,-335.5 1096.5,-371.5 1247.5,-371.5 1247.5,-335.5 1096.5,-335.5"/>
<text text-anchor="middle" x="1172" y="-351.6" font-family="Bitstream Vera Sans, Arial" font-size="8.00">AdministratorPasswordRequest</text>
</g>
<!-- AdministratorToken -->
<g id="node4" class="node"><title>AdministratorToken</title>
<polygon fill="none" stroke="black" points="978,-335.5 978,-371.5 1078,-371.5 1078,-335.5 978,-335.5"/>
<text text-anchor="middle" x="1028" y="-351.6" font-family="Bitstream Vera Sans, Arial" font-size="8.00">AdministratorToken</text>
</g>
<!-- AdministratorToken&#45;&gt;Administrator -->
<g id="edge1" class="edge"><title>AdministratorToken&#45;&gt;Administrator</title>
<path fill="none" stroke="black" d="M1026.17,-335.076C1024.5,-319.274 1022.05,-295.928 1020.26,-278.977"/>
<polygon fill="black" stroke="black" points="1019.82,-274.814 1022.03,-278.604 1020.03,-276.803 1020.24,-278.792 1020.24,-278.792 1020.24,-278.792 1020.03,-276.803 1018.45,-278.98 1019.82,-274.814 1019.82,-274.814"/>
<text text-anchor="middle" x="1016.82" y="-277.414" font-family="Bitstream Vera Sans, Arial" font-size="8.00">1</text>
<text text-anchor="middle" x="1023.67" y="-328.676" font-family="Bitstream Vera Sans, Arial" font-size="8.00">*</text>
</g>
<!-- SubscriberAttribute -->
<g id="node5" class="node"><title>SubscriberAttribute</title>
<polygon fill="none" stroke="black" points="257,-16.5 257,-52.5 311,-52.5 311,-16.5 257,-16.5"/>
<text text-anchor="middle" x="284" y="-32.6" font-family="Bitstream Vera Sans, Arial" font-size="8.00">Attribute</text>
</g>
<!-- SubscriberAttributeValue -->
<g id="node6" class="node"><title>SubscriberAttributeValue</title>
<polygon fill="none" stroke="black" points="246,-90.5 246,-126.5 322,-126.5 322,-90.5 246,-90.5"/>
<text text-anchor="middle" x="284" y="-106.6" font-family="Bitstream Vera Sans, Arial" font-size="8.00">AttributeValue</text>
</g>
<!-- SubscriberAttributeValue&#45;&gt;SubscriberAttribute -->
<g id="edge18" class="edge"><title>SubscriberAttributeValue&#45;&gt;SubscriberAttribute</title>
<path fill="none" stroke="black" d="M284,-90.437C284,-80.4515 284,-67.7486 284,-57.0735"/>
<polygon fill="black" stroke="black" points="284,-52.9407 285.8,-56.9406 284,-54.9407 284,-56.9407 284,-56.9407 284,-56.9407 284,-54.9407 282.2,-56.9407 284,-52.9407 284,-52.9407"/>
<text text-anchor="middle" x="281" y="-55.5407" font-family="Bitstream Vera Sans, Arial" font-size="8.00">1</text>
<text text-anchor="middle" x="281.5" y="-84.037" font-family="Bitstream Vera Sans, Arial" font-size="8.00">*</text>
</g>
<!-- SubscribePage -->
<g id="node7" class="node"><title>SubscribePage</title>
<polygon fill="none" stroke="black" points="120,-238.5 120,-274.5 200,-274.5 200,-238.5 120,-238.5"/>
<text text-anchor="middle" x="160" y="-254.6" font-family="Bitstream Vera Sans, Arial" font-size="8.00">SubscribePage</text>
</g>
<!-- SubscribePageData -->
<g id="node8" class="node"><title>SubscribePageData</title>
<polygon fill="none" stroke="black" points="140,-164.5 140,-200.5 240,-200.5 240,-164.5 140,-164.5"/>
<text text-anchor="middle" x="190" y="-180.6" font-family="Bitstream Vera Sans, Arial" font-size="8.00">SubscribePageData</text>
</g>
<!-- SubscribePage&#45;&gt;SubscribePageData -->
<g id="edge14" class="edge"><title>SubscribePage&#45;&gt;SubscribePageData</title>
<path fill="none" stroke="black" d="M167.11,-238.437C171.307,-228.363 176.657,-215.524 181.129,-204.791"/>
<polygon fill="black" stroke="black" points="182.733,-200.941 182.856,-205.325 181.964,-202.787 181.195,-204.633 181.195,-204.633 181.195,-204.633 181.964,-202.787 179.533,-203.941 182.733,-200.941 182.733,-200.941"/>
<text text-anchor="middle" x="180.233" y="-203.541" font-family="Bitstream Vera Sans, Arial" font-size="8.00">*</text>
<text text-anchor="middle" x="164.11" y="-232.037" font-family="Bitstream Vera Sans, Arial" font-size="8.00">1</text>
</g>
<!-- Subscriber -->
<g id="node9" class="node"><title>Subscriber</title>
<polygon fill="none" stroke="black" points="258.5,-164.5 258.5,-200.5 321.5,-200.5 321.5,-164.5 258.5,-164.5"/>
<text text-anchor="middle" x="290" y="-180.6" font-family="Bitstream Vera Sans, Arial" font-size="8.00">Subscriber</text>
</g>
<!-- Subscriber&#45;&gt;SubscriberAttributeValue -->
<g id="edge16" class="edge"><title>Subscriber&#45;&gt;SubscriberAttributeValue</title>
<path fill="none" stroke="black" d="M288.578,-164.437C287.746,-154.451 286.687,-141.749 285.798,-131.074"/>
<polygon fill="black" stroke="black" points="285.453,-126.941 287.579,-130.777 285.62,-128.934 285.786,-130.927 285.786,-130.927 285.786,-130.927 285.62,-128.934 283.992,-131.076 285.453,-126.941 285.453,-126.941"/>
<text text-anchor="middle" x="282.953" y="-129.541" font-family="Bitstream Vera Sans, Arial" font-size="8.00">*</text>
<text text-anchor="middle" x="285.578" y="-158.037" font-family="Bitstream Vera Sans, Arial" font-size="8.00">1</text>
</g>
<!-- SubscriberHistory -->
<g id="node10" class="node"><title>SubscriberHistory</title>
<polygon fill="none" stroke="black" points="134.5,-90.5 134.5,-126.5 227.5,-126.5 227.5,-90.5 134.5,-90.5"/>
<text text-anchor="middle" x="181" y="-106.6" font-family="Bitstream Vera Sans, Arial" font-size="8.00">SubscriberHistory</text>
</g>
<!-- Subscriber&#45;&gt;SubscriberHistory -->
<g id="edge17" class="edge"><title>Subscriber&#45;&gt;SubscriberHistory</title>
<path fill="none" stroke="black" d="M264.169,-164.437C248.132,-153.844 227.465,-140.193 210.746,-129.149"/>
<polygon fill="black" stroke="black" points="207.024,-126.69 211.354,-127.393 208.693,-127.792 210.361,-128.895 210.361,-128.895 210.361,-128.895 208.693,-127.792 209.369,-130.397 207.024,-126.69 207.024,-126.69"/>
<text text-anchor="middle" x="204.524" y="-129.29" font-family="Bitstream Vera Sans, Arial" font-size="8.00">*</text>
<text text-anchor="middle" x="261.169" y="-158.037" font-family="Bitstream Vera Sans, Arial" font-size="8.00">1</text>
</g>
<!-- CampaignForward -->
<g id="node20" class="node"><title>CampaignForward</title>
<polygon fill="none" stroke="black" points="586,-335.5 586,-371.5 680,-371.5 680,-335.5 586,-335.5"/>
<text text-anchor="middle" x="633" y="-351.6" font-family="Bitstream Vera Sans, Arial" font-size="8.00">CampaignForward</text>
</g>
<!-- Subscriber&#45;&gt;CampaignForward -->
<g id="edge15" class="edge"><title>Subscriber&#45;&gt;CampaignForward</title>
<path fill="none" stroke="black" d="M306.511,-200.887C314.115,-209.331 322.986,-219.832 330,-230 350.101,-259.139 338.803,-279.984 368,-300 445.251,-352.959 486.932,-301.307 577,-327 583.295,-328.796 589.786,-331.193 596.017,-333.801"/>
<polygon fill="black" stroke="black" points="599.859,-335.449 595.474,-335.527 598.021,-334.66 596.183,-333.872 596.183,-333.872 596.183,-333.872 598.021,-334.66 596.892,-332.218 599.859,-335.449 599.859,-335.449"/>
<text text-anchor="middle" x="597.359" y="-329.049" font-family="Bitstream Vera Sans, Arial" font-size="8.00">*</text>
<text text-anchor="middle" x="303.511" y="-203.487" font-family="Bitstream Vera Sans, Arial" font-size="8.00">1</text>
</g>
<!-- Subscription -->
<g id="node11" class="node"><title>Subscription</title>
<polygon fill="none" stroke="black" points="218,-238.5 218,-274.5 288,-274.5 288,-238.5 218,-238.5"/>
<text text-anchor="middle" x="253" y="-254.6" font-family="Bitstream Vera Sans, Arial" font-size="8.00">Subscription</text>
</g>
<!-- Subscription&#45;&gt;Subscriber -->
<g id="edge19" class="edge"><title>Subscription&#45;&gt;Subscriber</title>
<path fill="none" stroke="black" d="M261.768,-238.437C266.991,-228.275 273.659,-215.298 279.204,-204.509"/>
<polygon fill="black" stroke="black" points="281.037,-200.941 280.81,-205.321 280.123,-202.72 279.209,-204.498 279.209,-204.498 279.209,-204.498 280.123,-202.72 277.608,-203.676 281.037,-200.941 281.037,-200.941"/>
<text text-anchor="middle" x="278.037" y="-203.541" font-family="Bitstream Vera Sans, Arial" font-size="8.00">1</text>
<text text-anchor="middle" x="259.268" y="-232.037" font-family="Bitstream Vera Sans, Arial" font-size="8.00">*</text>
</g>
<!-- SuppressionList -->
<g id="node12" class="node"><title>SuppressionList</title>
<polygon fill="none" stroke="black" points="16,-238.5 16,-274.5 102,-274.5 102,-238.5 16,-238.5"/>
<text text-anchor="middle" x="59" y="-254.6" font-family="Bitstream Vera Sans, Arial" font-size="8.00">SuppressionList</text>
</g>
<!-- SuppressionListData -->
<g id="node13" class="node"><title>SuppressionListData</title>
<polygon fill="none" stroke="black" points="16.5,-164.5 16.5,-200.5 121.5,-200.5 121.5,-164.5 16.5,-164.5"/>
<text text-anchor="middle" x="69" y="-180.6" font-family="Bitstream Vera Sans, Arial" font-size="8.00">SuppressionListData</text>
</g>
<!-- SuppressionList&#45;&gt;SuppressionListData -->
<g id="edge20" class="edge"><title>SuppressionList&#45;&gt;SuppressionListData</title>
<path fill="none" stroke="black" d="M61.3699,-238.437C62.7567,-228.451 64.521,-215.749 66.0037,-205.074"/>
<polygon fill="black" stroke="black" points="66.5777,-200.941 67.8102,-205.15 66.3025,-202.922 66.0273,-204.903 66.0273,-204.903 66.0273,-204.903 66.3025,-202.922 64.2444,-204.655 66.5777,-200.941 66.5777,-200.941"/>
<text text-anchor="middle" x="64.0777" y="-203.541" font-family="Bitstream Vera Sans, Arial" font-size="8.00">*</text>
<text text-anchor="middle" x="58.3699" y="-232.037" font-family="Bitstream Vera Sans, Arial" font-size="8.00">1</text>
</g>
<!-- Attachment -->
<g id="node14" class="node"><title>Attachment</title>
<polygon fill="none" stroke="black" points="514.5,-164.5 514.5,-200.5 579.5,-200.5 579.5,-164.5 514.5,-164.5"/>
<text text-anchor="middle" x="547" y="-180.6" font-family="Bitstream Vera Sans, Arial" font-size="8.00">Attachment</text>
</g>
<!-- Bounce -->
<g id="node15" class="node"><title>Bounce</title>
<polygon fill="none" stroke="black" points="514,-335.5 514,-371.5 568,-371.5 568,-335.5 514,-335.5"/>
<text text-anchor="middle" x="541" y="-351.6" font-family="Bitstream Vera Sans, Arial" font-size="8.00">Bounce</text>
</g>
<!-- Bounce&#45;&gt;Subscriber -->
<g id="edge2" class="edge"><title>Bounce&#45;&gt;Subscriber</title>
<path fill="none" stroke="black" d="M513.668,-349.906C467.957,-345.155 378.406,-333.959 352,-317 313.107,-292.022 298.223,-235.694 292.836,-204.787"/>
<polygon fill="black" stroke="black" points="292.167,-200.783 294.602,-204.432 292.496,-202.756 292.826,-204.728 292.826,-204.728 292.826,-204.728 292.496,-202.756 291.051,-205.025 292.167,-200.783 292.167,-200.783"/>
<text text-anchor="middle" x="283.667" y="-203.383" font-family="Bitstream Vera Sans, Arial" font-size="8.00">0..1</text>
<text text-anchor="middle" x="511.168" y="-352.506" font-family="Bitstream Vera Sans, Arial" font-size="8.00">*</text>
</g>
<!-- BounceRegEx -->
<g id="node16" class="node"><title>BounceRegEx</title>
<polygon fill="none" stroke="black" points="808,-335.5 808,-371.5 882,-371.5 882,-335.5 808,-335.5"/>
<text text-anchor="middle" x="845" y="-351.6" font-family="Bitstream Vera Sans, Arial" font-size="8.00">BounceRegEx</text>
</g>
<!-- Campaign -->
<g id="node17" class="node"><title>Campaign</title>
<polygon fill="none" stroke="black" points="603.5,-238.5 603.5,-274.5 662.5,-274.5 662.5,-238.5 603.5,-238.5"/>
<text text-anchor="middle" x="633" y="-254.6" font-family="Bitstream Vera Sans, Arial" font-size="8.00">Campaign</text>
</g>
<!-- Campaign&#45;&gt;Subscriber -->
<g id="edge5" class="edge"><title>Campaign&#45;&gt;Subscriber</title>
<path fill="none" stroke="black" d="M603.157,-249.543C554.058,-239.702 453.183,-219.314 368,-201 354.228,-198.039 339.115,-194.675 325.89,-191.693"/>
<polygon fill="black" stroke="black" points="321.85,-190.781 326.148,-189.906 323.801,-191.221 325.751,-191.662 325.751,-191.662 325.751,-191.662 323.801,-191.221 325.355,-193.418 321.85,-190.781 321.85,-190.781"/>
<text text-anchor="middle" x="324.35" y="-184.381" font-family="Bitstream Vera Sans, Arial" font-size="8.00">*</text>
<text text-anchor="middle" x="600.657" y="-252.143" font-family="Bitstream Vera Sans, Arial" font-size="8.00">*</text>
</g>
<!-- Campaign&#45;&gt;Attachment -->
<g id="edge3" class="edge"><title>Campaign&#45;&gt;Attachment</title>
<path fill="none" stroke="black" d="M618.499,-238.386C612.723,-231.995 605.831,-224.87 599,-219 592.517,-213.428 585.142,-207.948 578.025,-203.023"/>
<polygon fill="black" stroke="black" points="574.558,-200.652 578.876,-201.424 576.209,-201.781 577.86,-202.91 577.86,-202.91 577.86,-202.91 576.209,-201.781 576.844,-204.396 574.558,-200.652 574.558,-200.652"/>
<text text-anchor="middle" x="572.058" y="-203.252" font-family="Bitstream Vera Sans, Arial" font-size="8.00">*</text>
<text text-anchor="middle" x="615.499" y="-231.986" font-family="Bitstream Vera Sans, Arial" font-size="8.00">1</text>
</g>
<!-- CampaignData -->
<g id="node19" class="node"><title>CampaignData</title>
<polygon fill="none" stroke="black" points="597.5,-164.5 597.5,-200.5 676.5,-200.5 676.5,-164.5 597.5,-164.5"/>
<text text-anchor="middle" x="637" y="-180.6" font-family="Bitstream Vera Sans, Arial" font-size="8.00">CampaignData</text>
</g>
<!-- Campaign&#45;&gt;CampaignData -->
<g id="edge4" class="edge"><title>Campaign&#45;&gt;CampaignData</title>
<path fill="none" stroke="black" d="M633.948,-238.437C634.503,-228.451 635.208,-215.749 635.801,-205.074"/>
<polygon fill="black" stroke="black" points="636.031,-200.941 637.606,-205.034 635.92,-202.938 635.809,-204.935 635.809,-204.935 635.809,-204.935 635.92,-202.938 634.012,-204.835 636.031,-200.941 636.031,-200.941"/>
<text text-anchor="middle" x="633.531" y="-203.541" font-family="Bitstream Vera Sans, Arial" font-size="8.00">*</text>
<text text-anchor="middle" x="630.948" y="-232.037" font-family="Bitstream Vera Sans, Arial" font-size="8.00">1</text>
</g>
<!-- Template -->
<g id="node22" class="node"><title>Template</title>
<polygon fill="none" stroke="black" points="694,-164.5 694,-200.5 750,-200.5 750,-164.5 694,-164.5"/>
<text text-anchor="middle" x="722" y="-180.6" font-family="Bitstream Vera Sans, Arial" font-size="8.00">Template</text>
</g>
<!-- Campaign&#45;&gt;Template -->
<g id="edge6" class="edge"><title>Campaign&#45;&gt;Template</title>
<path fill="none" stroke="black" d="M654.092,-238.437C667.076,-227.933 683.777,-214.422 697.367,-203.428"/>
<polygon fill="black" stroke="black" points="700.751,-200.69 698.774,-204.605 699.196,-201.948 697.641,-203.206 697.641,-203.206 697.641,-203.206 699.196,-201.948 696.509,-201.806 700.751,-200.69 700.751,-200.69"/>
<text text-anchor="middle" x="697.751" y="-203.29" font-family="Bitstream Vera Sans, Arial" font-size="8.00">1</text>
<text text-anchor="middle" x="651.592" y="-232.037" font-family="Bitstream Vera Sans, Arial" font-size="8.00">*</text>
</g>
<!-- CampaignBounce -->
<g id="node18" class="node"><title>CampaignBounce</title>
<polygon fill="none" stroke="black" points="698.5,-335.5 698.5,-371.5 789.5,-371.5 789.5,-335.5 698.5,-335.5"/>
<text text-anchor="middle" x="744" y="-351.6" font-family="Bitstream Vera Sans, Arial" font-size="8.00">CampaignBounce</text>
</g>
<!-- CampaignForward&#45;&gt;Campaign -->
<g id="edge7" class="edge"><title>CampaignForward&#45;&gt;Campaign</title>
<path fill="none" stroke="black" d="M633,-335.076C633,-319.274 633,-295.928 633,-278.977"/>
<polygon fill="black" stroke="black" points="633,-274.814 634.8,-278.814 633,-276.814 633,-278.814 633,-278.814 633,-278.814 633,-276.814 631.2,-278.814 633,-274.814 633,-274.814"/>
<text text-anchor="middle" x="630" y="-277.414" font-family="Bitstream Vera Sans, Arial" font-size="8.00">1</text>
<text text-anchor="middle" x="630.5" y="-328.676" font-family="Bitstream Vera Sans, Arial" font-size="8.00">*</text>
</g>
<!-- List -->
<g id="node21" class="node"><title>List</title>
<polygon fill="none" stroke="black" points="900,-335.5 900,-371.5 954,-371.5 954,-335.5 900,-335.5"/>
<text text-anchor="middle" x="927" y="-351.6" font-family="Bitstream Vera Sans, Arial" font-size="8.00">List</text>
</g>
<!-- List&#45;&gt;Administrator -->
<g id="edge22" class="edge"><title>List&#45;&gt;Administrator</title>
<path fill="none" stroke="black" d="M943.691,-335.076C959.084,-319.006 981.95,-295.134 998.247,-278.121"/>
<polygon fill="black" stroke="black" points="1001.42,-274.814 999.948,-278.948 1000.03,-276.258 998.648,-277.703 998.648,-277.703 998.648,-277.703 1000.03,-276.258 997.348,-276.457 1001.42,-274.814 1001.42,-274.814"/>
<text text-anchor="middle" x="981.5" y="-310.6" font-family="Bitstream Vera Sans, Arial" font-size="8.00">owner</text>
<text text-anchor="middle" x="998.415" y="-277.414" font-family="Bitstream Vera Sans, Arial" font-size="8.00">1</text>
<text text-anchor="middle" x="941.191" y="-328.676" font-family="Bitstream Vera Sans, Arial" font-size="8.00">*</text>
</g>
<!-- List&#45;&gt;Subscription -->
<g id="edge13" class="edge"><title>List&#45;&gt;Subscription</title>
<path fill="none" stroke="black" d="M907.176,-335.499C902.191,-332.09 896.644,-328.958 891,-327 836.026,-307.928 424.996,-311.719 368,-300 341.886,-294.631 313.796,-284.341 291.915,-275.232"/>
<polygon fill="black" stroke="black" points="288.182,-273.664 292.567,-273.553 290.026,-274.439 291.87,-275.213 291.87,-275.213 291.87,-275.213 290.026,-274.439 291.173,-276.873 288.182,-273.664 288.182,-273.664"/>
<text text-anchor="middle" x="290.682" y="-276.264" font-family="Bitstream Vera Sans, Arial" font-size="8.00">*</text>
<text text-anchor="middle" x="910.176" y="-329.099" font-family="Bitstream Vera Sans, Arial" font-size="8.00">1</text>
</g>
<!-- List&#45;&gt;Campaign -->
<g id="edge12" class="edge"><title>List&#45;&gt;Campaign</title>
<path fill="none" stroke="black" d="M905.286,-335.291C900.741,-332.223 895.851,-329.282 891,-327 815.06,-291.275 717.603,-271.334 666.967,-262.71"/>
<polygon fill="black" stroke="black" points="662.809,-262.009 667.052,-260.899 664.781,-262.341 666.753,-262.674 666.753,-262.674 666.753,-262.674 664.781,-262.341 666.454,-264.449 662.809,-262.009 662.809,-262.009"/>
<text text-anchor="middle" x="665.309" y="-264.609" font-family="Bitstream Vera Sans, Arial" font-size="8.00">*</text>
<text text-anchor="middle" x="902.786" y="-328.891" font-family="Bitstream Vera Sans, Arial" font-size="8.00">*</text>
</g>
<!-- TemplateImage -->
<g id="node23" class="node"><title>TemplateImage</title>
<polygon fill="none" stroke="black" points="555.5,-90.5 555.5,-126.5 638.5,-126.5 638.5,-90.5 555.5,-90.5"/>
<text text-anchor="middle" x="597" y="-106.6" font-family="Bitstream Vera Sans, Arial" font-size="8.00">TemplateImage</text>
</g>
<!-- Template&#45;&gt;TemplateImage -->
<g id="edge21" class="edge"><title>Template&#45;&gt;TemplateImage</title>
<path fill="none" stroke="black" d="M693.948,-165.342C675.188,-154.536 650.406,-140.262 630.594,-128.85"/>
<polygon fill="black" stroke="black" points="626.701,-126.608 631.066,-127.045 628.434,-127.606 630.167,-128.604 630.167,-128.604 630.167,-128.604 628.434,-127.606 629.269,-130.164 626.701,-126.608 626.701,-126.608"/>
<text text-anchor="middle" x="624.201" y="-129.208" font-family="Bitstream Vera Sans, Arial" font-size="8.00">*</text>
<text text-anchor="middle" x="690.948" y="-167.942" font-family="Bitstream Vera Sans, Arial" font-size="8.00">1</text>
</g>
<!-- LinkTrackMessageLink -->
<g id="node30" class="node"><title>LinkTrackMessageLink</title>
<polygon fill="none" stroke="black" points="379.5,-164.5 379.5,-200.5 490.5,-200.5 490.5,-164.5 379.5,-164.5"/>
<text text-anchor="middle" x="435" y="-180.6" font-family="Bitstream Vera Sans, Arial" font-size="8.00">LinkTrackMessageLink</text>
</g>
<!-- TemplateImage&#45;&gt;LinkTrackMessageLink -->
<!-- Configuration -->
<g id="node24" class="node"><title>Configuration</title>
<polygon fill="none" stroke="black" points="1753,-335.5 1753,-371.5 1827,-371.5 1827,-335.5 1753,-335.5"/>
<text text-anchor="middle" x="1790" y="-351.6" font-family="Bitstream Vera Sans, Arial" font-size="8.00">Configuration</text>
</g>
<!-- Internationalization -->
<g id="node25" class="node"><title>Internationalization</title>
<polygon fill="none" stroke="black" points="1637.5,-335.5 1637.5,-371.5 1734.5,-371.5 1734.5,-335.5 1637.5,-335.5"/>
<text text-anchor="middle" x="1686" y="-351.6" font-family="Bitstream Vera Sans, Arial" font-size="8.00">Internationalization</text>
</g>
<!-- LogEntry -->
<g id="node26" class="node"><title>LogEntry</title>
<polygon fill="none" stroke="black" points="1565,-335.5 1565,-371.5 1619,-371.5 1619,-335.5 1565,-335.5"/>
<text text-anchor="middle" x="1592" y="-351.6" font-family="Bitstream Vera Sans, Arial" font-size="8.00">LogEntry</text>
</g>
<!-- SendProcess -->
<g id="node27" class="node"><title>SendProcess</title>
<polygon fill="none" stroke="black" points="1473.5,-335.5 1473.5,-371.5 1546.5,-371.5 1546.5,-335.5 1473.5,-335.5"/>
<text text-anchor="middle" x="1510" y="-351.6" font-family="Bitstream Vera Sans, Arial" font-size="8.00">SendProcess</text>
</g>
<!-- UrlCache -->
<g id="node28" class="node"><title>UrlCache</title>
<polygon fill="none" stroke="black" points="1400.5,-335.5 1400.5,-371.5 1455.5,-371.5 1455.5,-335.5 1400.5,-335.5"/>
<text text-anchor="middle" x="1428" y="-351.6" font-family="Bitstream Vera Sans, Arial" font-size="8.00">UrlCache</text>
</g>
<!-- LinkTrackForward -->
<g id="node29" class="node"><title>LinkTrackForward</title>
<polygon fill="none" stroke="black" points="389.5,-90.5 389.5,-126.5 480.5,-126.5 480.5,-90.5 389.5,-90.5"/>
<text text-anchor="middle" x="435" y="-106.6" font-family="Bitstream Vera Sans, Arial" font-size="8.00">LinkTrackForward</text>
</g>
<!-- LinkTrackMessageLink&#45;&gt;Campaign -->
<g id="edge8" class="edge"><title>LinkTrackMessageLink&#45;&gt;Campaign</title>
<path fill="none" stroke="black" d="M486.194,-200.505C503.063,-206.233 521.883,-212.758 539,-219 559.184,-226.36 581.617,-235.051 599.506,-242.106"/>
<polygon fill="black" stroke="black" points="603.483,-243.677 599.102,-243.882 601.623,-242.942 599.763,-242.208 599.763,-242.208 599.763,-242.208 601.623,-242.942 600.424,-240.534 603.483,-243.677 603.483,-243.677"/>
<text text-anchor="middle" x="600.483" y="-237.277" font-family="Bitstream Vera Sans, Arial" font-size="8.00">1</text>
<text text-anchor="middle" x="488.694" y="-203.105" font-family="Bitstream Vera Sans, Arial" font-size="8.00">*</text>
</g>
<!-- LinkTrackMessageLink&#45;&gt;LinkTrackForward -->
<g id="edge9" class="edge"><title>LinkTrackMessageLink&#45;&gt;LinkTrackForward</title>
<path fill="none" stroke="black" d="M435,-164.437C435,-154.451 435,-141.749 435,-131.074"/>
<polygon fill="black" stroke="black" points="435,-126.941 436.8,-130.941 435,-128.941 435,-130.941 435,-130.941 435,-130.941 435,-128.941 433.2,-130.941 435,-126.941 435,-126.941"/>
<text text-anchor="middle" x="432" y="-129.541" font-family="Bitstream Vera Sans, Arial" font-size="8.00">1</text>
<text text-anchor="middle" x="432.5" y="-158.037" font-family="Bitstream Vera Sans, Arial" font-size="8.00">*</text>
</g>
<!-- LinkTrackUmlClick -->
<g id="node31" class="node"><title>LinkTrackUmlClick</title>
<polygon fill="none" stroke="black" points="384,-238.5 384,-274.5 476,-274.5 476,-238.5 384,-238.5"/>
<text text-anchor="middle" x="430" y="-254.6" font-family="Bitstream Vera Sans, Arial" font-size="8.00">LinkTrackUmlClick</text>
</g>
<!-- LinkTrackUmlClick&#45;&gt;Subscriber -->
<g id="edge11" class="edge"><title>LinkTrackUmlClick&#45;&gt;Subscriber</title>
<path fill="none" stroke="black" d="M402.264,-238.333C391.68,-232.004 379.414,-224.936 368,-219 354.366,-211.909 339.036,-204.761 325.599,-198.756"/>
<polygon fill="black" stroke="black" points="321.862,-197.094 326.248,-197.075 323.689,-197.907 325.517,-198.72 325.517,-198.72 325.517,-198.72 323.689,-197.907 324.785,-200.365 321.862,-197.094 321.862,-197.094"/>
<text text-anchor="middle" x="324.862" y="-199.694" font-family="Bitstream Vera Sans, Arial" font-size="8.00">1</text>
<text text-anchor="middle" x="399.764" y="-231.933" font-family="Bitstream Vera Sans, Arial" font-size="8.00">*</text>
</g>
<!-- LinkTrackUmlClick&#45;&gt;LinkTrackMessageLink -->
<g id="edge10" class="edge"><title>LinkTrackUmlClick&#45;&gt;LinkTrackMessageLink</title>
<path fill="none" stroke="black" d="M431.185,-238.437C431.878,-228.451 432.761,-215.749 433.502,-205.074"/>
<polygon fill="black" stroke="black" points="433.789,-200.941 435.307,-205.056 433.65,-202.936 433.512,-204.931 433.512,-204.931 433.512,-204.931 433.65,-202.936 431.716,-204.806 433.789,-200.941 433.789,-200.941"/>
<text text-anchor="middle" x="430.789" y="-203.541" font-family="Bitstream Vera Sans, Arial" font-size="8.00">1</text>
<text text-anchor="middle" x="428.685" y="-232.037" font-family="Bitstream Vera Sans, Arial" font-size="8.00">*</text>
</g>
</g>
</svg>
