<?xml version="1.0" encoding="UTF-8" standalone="no"?>
<!DOCTYPE svg PUBLIC "-//W3C//DTD SVG 1.1//EN"
 "http://www.w3.org/Graphics/SVG/1.1/DTD/svg11.dtd">
<!-- Generated by graphviz version 2.38.0 (20140413.2041)
 -->
<!-- Title: phpListDomainModel Pages: 1 -->
<svg width="1865pt" height="413pt"
 viewBox="0.00 0.00 1865.00 413.00" xmlns="http://www.w3.org/2000/svg" xmlns:xlink="http://www.w3.org/1999/xlink">
<g id="graph0" class="graph" transform="scale(1 1) rotate(0) translate(4 409)">
<title>phpListDomainModel</title>
<polygon fill="white" stroke="none" points="-4,4 -4,-409 1861,-409 1861,4 -4,4"/>
<g id="clust1" class="cluster"><title>clusterIdentityContext</title>
<polygon fill="#f2f2f2" stroke="#00ff00" points="988,-230 988,-397 1400,-397 1400,-230 988,-230"/>
<text text-anchor="middle" x="1194" y="-386.6" font-family="Bitstream Vera Sans, Arial" font-size="8.00">IdentityContext</text>
</g>
<g id="clust2" class="cluster"><title>clusterSubscriptionContext</title>
<polygon fill="#f2f2f2" stroke="#00ff00" points="8,-8 8,-300 322,-300 322,-8 8,-8"/>
<text text-anchor="middle" x="165" y="-289.6" font-family="Bitstream Vera Sans, Arial" font-size="8.00">SubscriptionContext</text>
</g>
<g id="clust3" class="cluster"><title>clusterMessagingContext</title>
<polygon fill="#f2f2f2" stroke="#00ff00" points="501,-82 501,-397 980,-397 980,-82 501,-82"/>
<text text-anchor="middle" x="740.5" y="-386.6" font-family="Bitstream Vera Sans, Arial" font-size="8.00">MessagingContext</text>
</g>
<g id="clust4" class="cluster"><title>clusterSystemContext</title>
<polygon fill="#f2f2f2" stroke="#00ff00" points="1408,-327 1408,-397 1849,-397 1849,-327 1408,-327"/>
<text text-anchor="middle" x="1628.5" y="-386.6" font-family="Bitstream Vera Sans, Arial" font-size="8.00">SystemContext</text>
</g>
<g id="clust5" class="cluster"><title>clusterTrackingContext</title>
<polygon fill="#f2f2f2" stroke="#00ff00" points="367,-82 367,-300 493,-300 493,-82 367,-82"/>
<text text-anchor="middle" x="430" y="-289.6" font-family="Bitstream Vera Sans, Arial" font-size="8.00">Tracking Context</text>
</g>
<!-- Administrator -->
<g id="node1" class="node"><title>Administrator</title>
<polygon fill="none" stroke="black" points="999,-238.5 999,-274.5 1073,-274.5 1073,-238.5 999,-238.5"/>
<text text-anchor="middle" x="1036" y="-254.6" font-family="Bitstream Vera Sans, Arial" font-size="8.00">Administrator</text>
</g>
<!-- Attribute -->
<g id="node2" class="node"><title>Attribute</title>
<polygon fill="none" stroke="black" points="1281.5,-335.5 1281.5,-371.5 1392.5,-371.5 1392.5,-335.5 1281.5,-335.5"/>
<text text-anchor="middle" x="1337" y="-351.6" font-family="Bitstream Vera Sans, Arial" font-size="8.00">AdministratorAttribute</text>
</g>
<!-- AdministratorPasswordRequest -->
<g id="node3" class="node"><title>AdministratorPasswordRequest</title>
<polygon fill="none" stroke="black" points="1114.5,-335.5 1114.5,-371.5 1263.5,-371.5 1263.5,-335.5 1114.5,-335.5"/>
<text text-anchor="middle" x="1189" y="-351.6" font-family="Bitstream Vera Sans, Arial" font-size="8.00">AdministratorPasswordRequest</text>
</g>
<!-- AdministratorToken -->
<g id="node4" class="node"><title>AdministratorToken</title>
<polygon fill="none" stroke="black" points="996,-335.5 996,-371.5 1096,-371.5 1096,-335.5 996,-335.5"/>
<text text-anchor="middle" x="1046" y="-351.6" font-family="Bitstream Vera Sans, Arial" font-size="8.00">AdministratorToken</text>
</g>
<!-- AdministratorToken&#45;&gt;Administrator -->
<g id="edge1" class="edge"><title>AdministratorToken&#45;&gt;Administrator</title>
<path fill="none" stroke="black" d="M1044.17,-335.076C1042.5,-319.274 1040.05,-295.928 1038.26,-278.977"/>
<polygon fill="black" stroke="black" points="1037.82,-274.814 1040.03,-278.604 1038.03,-276.803 1038.24,-278.792 1038.24,-278.792 1038.24,-278.792 1038.03,-276.803 1036.45,-278.98 1037.82,-274.814 1037.82,-274.814"/>
<text text-anchor="middle" x="1034.82" y="-277.414" font-family="Bitstream Vera Sans, Arial" font-size="8.00">1</text>
<text text-anchor="middle" x="1041.67" y="-328.676" font-family="Bitstream Vera Sans, Arial" font-size="8.00">*</text>
</g>
<!-- SubscriberAttribute -->
<g id="node5" class="node"><title>SubscriberAttribute</title>
<polygon fill="none" stroke="black" points="248,-16.5 248,-52.5 302,-52.5 302,-16.5 248,-16.5"/>
<text text-anchor="middle" x="275" y="-32.6" font-family="Bitstream Vera Sans, Arial" font-size="8.00">Attribute</text>
</g>
<!-- SubscriberAttributeValue -->
<g id="node6" class="node"><title>SubscriberAttributeValue</title>
<polygon fill="none" stroke="black" points="236.5,-90.5 236.5,-126.5 313.5,-126.5 313.5,-90.5 236.5,-90.5"/>
<text text-anchor="middle" x="275" y="-106.6" font-family="Bitstream Vera Sans, Arial" font-size="8.00">AttributeValue</text>
</g>
<!-- SubscriberAttributeValue&#45;&gt;SubscriberAttribute -->
<g id="edge18" class="edge"><title>SubscriberAttributeValue&#45;&gt;SubscriberAttribute</title>
<path fill="none" stroke="black" d="M275,-90.437C275,-80.4515 275,-67.7486 275,-57.0735"/>
<polygon fill="black" stroke="black" points="275,-52.9407 276.8,-56.9406 275,-54.9407 275,-56.9407 275,-56.9407 275,-56.9407 275,-54.9407 273.2,-56.9407 275,-52.9407 275,-52.9407"/>
<text text-anchor="middle" x="272" y="-55.5407" font-family="Bitstream Vera Sans, Arial" font-size="8.00">1</text>
<text text-anchor="middle" x="272.5" y="-84.037" font-family="Bitstream Vera Sans, Arial" font-size="8.00">*</text>
</g>
<!-- SubscribePage -->
<g id="node7" class="node"><title>SubscribePage</title>
<polygon fill="none" stroke="black" points="117.5,-238.5 117.5,-274.5 196.5,-274.5 196.5,-238.5 117.5,-238.5"/>
<text text-anchor="middle" x="157" y="-254.6" font-family="Bitstream Vera Sans, Arial" font-size="8.00">SubscribePage</text>
</g>
<!-- SubscribePageData -->
<g id="node8" class="node"><title>SubscribePageData</title>
<polygon fill="none" stroke="black" points="136,-164.5 136,-200.5 234,-200.5 234,-164.5 136,-164.5"/>
<text text-anchor="middle" x="185" y="-180.6" font-family="Bitstream Vera Sans, Arial" font-size="8.00">SubscribePageData</text>
</g>
<!-- SubscribePage&#45;&gt;SubscribePageData -->
<g id="edge14" class="edge"><title>SubscribePage&#45;&gt;SubscribePageData</title>
<path fill="none" stroke="black" d="M163.636,-238.437C167.553,-228.363 172.546,-215.524 176.72,-204.791"/>
<polygon fill="black" stroke="black" points="178.218,-200.941 178.445,-205.321 177.493,-202.805 176.768,-204.669 176.768,-204.669 176.768,-204.669 177.493,-202.805 175.09,-204.016 178.218,-200.941 178.218,-200.941"/>
<text text-anchor="middle" x="175.718" y="-203.541" font-family="Bitstream Vera Sans, Arial" font-size="8.00">*</text>
<text text-anchor="middle" x="160.636" y="-232.037" font-family="Bitstream Vera Sans, Arial" font-size="8.00">1</text>
</g>
<!-- Subscriber -->
<g id="node9" class="node"><title>Subscriber</title>
<polygon fill="none" stroke="black" points="252,-164.5 252,-200.5 314,-200.5 314,-164.5 252,-164.5"/>
<text text-anchor="middle" x="283" y="-180.6" font-family="Bitstream Vera Sans, Arial" font-size="8.00">Subscriber</text>
</g>
<!-- Subscriber&#45;&gt;SubscriberAttributeValue -->
<g id="edge16" class="edge"><title>Subscriber&#45;&gt;SubscriberAttributeValue</title>
<path fill="none" stroke="black" d="M281.104,-164.437C279.995,-154.451 278.583,-141.749 277.397,-131.074"/>
<polygon fill="black" stroke="black" points="276.938,-126.941 279.169,-130.717 277.159,-128.928 277.38,-130.916 277.38,-130.916 277.38,-130.916 277.159,-128.928 275.591,-131.115 276.938,-126.941 276.938,-126.941"/>
<text text-anchor="middle" x="274.438" y="-129.541" font-family="Bitstream Vera Sans, Arial" font-size="8.00">*</text>
<text text-anchor="middle" x="278.104" y="-158.037" font-family="Bitstream Vera Sans, Arial" font-size="8.00">1</text>
</g>
<!-- SubscriberHistory -->
<g id="node10" class="node"><title>SubscriberHistory</title>
<polygon fill="none" stroke="black" points="126,-90.5 126,-126.5 218,-126.5 218,-90.5 126,-90.5"/>
<text text-anchor="middle" x="172" y="-106.6" font-family="Bitstream Vera Sans, Arial" font-size="8.00">SubscriberHistory</text>
</g>
<!-- Subscriber&#45;&gt;SubscriberHistory -->
<g id="edge17" class="edge"><title>Subscriber&#45;&gt;SubscriberHistory</title>
<path fill="none" stroke="black" d="M256.695,-164.437C240.226,-153.755 218.964,-139.963 201.863,-128.871"/>
<polygon fill="black" stroke="black" points="198.501,-126.69 202.837,-127.357 200.179,-127.778 201.857,-128.867 201.857,-128.867 201.857,-128.867 200.179,-127.778 200.878,-130.377 198.501,-126.69 198.501,-126.69"/>
<text text-anchor="middle" x="196.001" y="-129.29" font-family="Bitstream Vera Sans, Arial" font-size="8.00">*</text>
<text text-anchor="middle" x="253.695" y="-158.037" font-family="Bitstream Vera Sans, Arial" font-size="8.00">1</text>
</g>
<!-- CampaignForward -->
<g id="node20" class="node"><title>CampaignForward</title>
<polygon fill="none" stroke="black" points="581,-335.5 581,-371.5 675,-371.5 675,-335.5 581,-335.5"/>
<text text-anchor="middle" x="628" y="-351.6" font-family="Bitstream Vera Sans, Arial" font-size="8.00">CampaignForward</text>
</g>
<!-- Subscriber&#45;&gt;CampaignForward -->
<g id="edge15" class="edge"><title>Subscriber&#45;&gt;CampaignForward</title>
<path fill="none" stroke="black" d="M299.907,-200.864C307.698,-209.303 316.792,-219.806 324,-230 344.561,-259.079 333.516,-280.024 363,-300 440.54,-352.535 481.932,-301.307 572,-327 578.295,-328.796 584.786,-331.193 591.017,-333.801"/>
<polygon fill="black" stroke="black" points="594.859,-335.449 590.474,-335.527 593.021,-334.66 591.183,-333.872 591.183,-333.872 591.183,-333.872 593.021,-334.66 591.892,-332.218 594.859,-335.449 594.859,-335.449"/>
<text text-anchor="middle" x="592.359" y="-329.049" font-family="Bitstream Vera Sans, Arial" font-size="8.00">*</text>
<text text-anchor="middle" x="296.907" y="-203.464" font-family="Bitstream Vera Sans, Arial" font-size="8.00">1</text>
</g>
<!-- Subscription -->
<g id="node11" class="node"><title>Subscription</title>
<polygon fill="none" stroke="black" points="215,-238.5 215,-274.5 283,-274.5 283,-238.5 215,-238.5"/>
<text text-anchor="middle" x="249" y="-254.6" font-family="Bitstream Vera Sans, Arial" font-size="8.00">Subscription</text>
</g>
<!-- Subscription&#45;&gt;Subscriber -->
<g id="edge19" class="edge"><title>Subscription&#45;&gt;Subscriber</title>
<path fill="none" stroke="black" d="M257.058,-238.437C261.815,-228.363 267.878,-215.524 272.946,-204.791"/>
<polygon fill="black" stroke="black" points="274.764,-200.941 274.684,-205.326 273.91,-202.749 273.056,-204.558 273.056,-204.558 273.056,-204.558 273.91,-202.749 271.428,-203.789 274.764,-200.941 274.764,-200.941"/>
<text text-anchor="middle" x="271.764" y="-203.541" font-family="Bitstream Vera Sans, Arial" font-size="8.00">1</text>
<text text-anchor="middle" x="254.558" y="-232.037" font-family="Bitstream Vera Sans, Arial" font-size="8.00">*</text>
</g>
<!-- SuppressionList -->
<g id="node12" class="node"><title>SuppressionList</title>
<polygon fill="none" stroke="black" points="16.5,-238.5 16.5,-274.5 99.5,-274.5 99.5,-238.5 16.5,-238.5"/>
<text text-anchor="middle" x="58" y="-254.6" font-family="Bitstream Vera Sans, Arial" font-size="8.00">SuppressionList</text>
</g>
<!-- SuppressionListData -->
<g id="node13" class="node"><title>SuppressionListData</title>
<polygon fill="none" stroke="black" points="16,-164.5 16,-200.5 118,-200.5 118,-164.5 16,-164.5"/>
<text text-anchor="middle" x="67" y="-180.6" font-family="Bitstream Vera Sans, Arial" font-size="8.00">SuppressionListData</text>
</g>
<!-- SuppressionList&#45;&gt;SuppressionListData -->
<g id="edge20" class="edge"><title>SuppressionList&#45;&gt;SuppressionListData</title>
<path fill="none" stroke="black" d="M60.1329,-238.437C61.3811,-228.451 62.9689,-215.749 64.3033,-205.074"/>
<polygon fill="black" stroke="black" points="64.8199,-200.941 66.1098,-205.133 64.5718,-202.925 64.3237,-204.91 64.3237,-204.91 64.3237,-204.91 64.5718,-202.925 62.5376,-204.686 64.8199,-200.941 64.8199,-200.941"/>
<text text-anchor="middle" x="62.3199" y="-203.541" font-family="Bitstream Vera Sans, Arial" font-size="8.00">*</text>
<text text-anchor="middle" x="57.1329" y="-232.037" font-family="Bitstream Vera Sans, Arial" font-size="8.00">1</text>
</g>
<!-- Attachment -->
<g id="node14" class="node"><title>Attachment</title>
<polygon fill="none" stroke="black" points="509.5,-164.5 509.5,-200.5 574.5,-200.5 574.5,-164.5 509.5,-164.5"/>
<text text-anchor="middle" x="542" y="-180.6" font-family="Bitstream Vera Sans, Arial" font-size="8.00">Attachment</text>
</g>
<!-- Bounce -->
<g id="node15" class="node"><title>Bounce</title>
<polygon fill="none" stroke="black" points="509,-335.5 509,-371.5 563,-371.5 563,-335.5 509,-335.5"/>
<text text-anchor="middle" x="536" y="-351.6" font-family="Bitstream Vera Sans, Arial" font-size="8.00">Bounce</text>
</g>
<!-- Bounce&#45;&gt;Subscriber -->
<g id="edge2" class="edge"><title>Bounce&#45;&gt;Subscriber</title>
<path fill="none" stroke="black" d="M508.668,-349.906C462.957,-345.155 373.406,-333.959 347,-317 307.882,-291.877 292.092,-235.609 286.193,-204.75"/>
<polygon fill="black" stroke="black" points="285.457,-200.752 287.952,-204.36 285.82,-202.719 286.182,-204.686 286.182,-204.686 286.182,-204.686 285.82,-202.719 284.411,-205.012 285.457,-200.752 285.457,-200.752"/>
<text text-anchor="middle" x="293.957" y="-203.352" font-family="Bitstream Vera Sans, Arial" font-size="8.00">0..1</text>
<text text-anchor="middle" x="506.168" y="-352.506" font-family="Bitstream Vera Sans, Arial" font-size="8.00">*</text>
</g>
<!-- BounceRegEx -->
<g id="node16" class="node"><title>BounceRegEx</title>
<polygon fill="none" stroke="black" points="802.5,-335.5 802.5,-371.5 877.5,-371.5 877.5,-335.5 802.5,-335.5"/>
<text text-anchor="middle" x="840" y="-351.6" font-family="Bitstream Vera Sans, Arial" font-size="8.00">BounceRegEx</text>
</g>
<!-- Campaign -->
<g id="node17" class="node"><title>Campaign</title>
<polygon fill="none" stroke="black" points="598.5,-238.5 598.5,-274.5 657.5,-274.5 657.5,-238.5 598.5,-238.5"/>
<text text-anchor="middle" x="628" y="-254.6" font-family="Bitstream Vera Sans, Arial" font-size="8.00">Campaign</text>
</g>
<!-- Campaign&#45;&gt;Subscriber -->
<g id="edge5" class="edge"><title>Campaign&#45;&gt;Subscriber</title>
<path fill="none" stroke="black" d="M598.168,-249.492C549.084,-239.577 448.231,-219.086 363,-201 348.38,-197.898 332.276,-194.392 318.374,-191.338"/>
<polygon fill="black" stroke="black" points="314.134,-190.405 318.427,-189.507 316.087,-190.835 318.04,-191.265 318.04,-191.265 318.04,-191.265 316.087,-190.835 317.654,-193.023 314.134,-190.405 314.134,-190.405"/>
<text text-anchor="middle" x="316.634" y="-184.005" font-family="Bitstream Vera Sans, Arial" font-size="8.00">*</text>
<text text-anchor="middle" x="595.668" y="-252.092" font-family="Bitstream Vera Sans, Arial" font-size="8.00">*</text>
</g>
<!-- Campaign&#45;&gt;Attachment -->
<g id="edge3" class="edge"><title>Campaign&#45;&gt;Attachment</title>
<path fill="none" stroke="black" d="M613.499,-238.386C607.723,-231.995 600.831,-224.87 594,-219 587.517,-213.428 580.142,-207.948 573.025,-203.023"/>
<polygon fill="black" stroke="black" points="569.558,-200.652 573.876,-201.424 571.209,-201.781 572.86,-202.91 572.86,-202.91 572.86,-202.91 571.209,-201.781 571.844,-204.396 569.558,-200.652 569.558,-200.652"/>
<text text-anchor="middle" x="567.058" y="-203.252" font-family="Bitstream Vera Sans, Arial" font-size="8.00">*</text>
<text text-anchor="middle" x="610.499" y="-231.986" font-family="Bitstream Vera Sans, Arial" font-size="8.00">1</text>
</g>
<!-- CampaignData -->
<g id="node19" class="node"><title>CampaignData</title>
<polygon fill="none" stroke="black" points="592.5,-164.5 592.5,-200.5 671.5,-200.5 671.5,-164.5 592.5,-164.5"/>
<text text-anchor="middle" x="632" y="-180.6" font-family="Bitstream Vera Sans, Arial" font-size="8.00">CampaignData</text>
</g>
<!-- Campaign&#45;&gt;CampaignData -->
<g id="edge4" class="edge"><title>Campaign&#45;&gt;CampaignData</title>
<path fill="none" stroke="black" d="M628.948,-238.437C629.503,-228.451 630.208,-215.749 630.801,-205.074"/>
<polygon fill="black" stroke="black" points="631.031,-200.941 632.606,-205.034 630.92,-202.938 630.809,-204.935 630.809,-204.935 630.809,-204.935 630.92,-202.938 629.012,-204.835 631.031,-200.941 631.031,-200.941"/>
<text text-anchor="middle" x="628.531" y="-203.541" font-family="Bitstream Vera Sans, Arial" font-size="8.00">*</text>
<text text-anchor="middle" x="625.948" y="-232.037" font-family="Bitstream Vera Sans, Arial" font-size="8.00">1</text>
</g>
<!-- Template -->
<g id="node22" class="node"><title>Template</title>
<polygon fill="none" stroke="black" points="689,-164.5 689,-200.5 745,-200.5 745,-164.5 689,-164.5"/>
<text text-anchor="middle" x="717" y="-180.6" font-family="Bitstream Vera Sans, Arial" font-size="8.00">Template</text>
</g>
<!-- Campaign&#45;&gt;Template -->
<g id="edge6" class="edge"><title>Campaign&#45;&gt;Template</title>
<path fill="none" stroke="black" d="M649.092,-238.437C662.076,-227.933 678.777,-214.422 692.367,-203.428"/>
<polygon fill="black" stroke="black" points="695.751,-200.69 693.774,-204.605 694.196,-201.948 692.641,-203.206 692.641,-203.206 692.641,-203.206 694.196,-201.948 691.509,-201.806 695.751,-200.69 695.751,-200.69"/>
<text text-anchor="middle" x="692.751" y="-203.29" font-family="Bitstream Vera Sans, Arial" font-size="8.00">1</text>
<text text-anchor="middle" x="646.592" y="-232.037" font-family="Bitstream Vera Sans, Arial" font-size="8.00">*</text>
</g>
<!-- CampaignBounce -->
<g id="node18" class="node"><title>CampaignBounce</title>
<polygon fill="none" stroke="black" points="693.5,-335.5 693.5,-371.5 784.5,-371.5 784.5,-335.5 693.5,-335.5"/>
<text text-anchor="middle" x="739" y="-351.6" font-family="Bitstream Vera Sans, Arial" font-size="8.00">CampaignBounce</text>
</g>
<!-- CampaignForward&#45;&gt;Campaign -->
<g id="edge7" class="edge"><title>CampaignForward&#45;&gt;Campaign</title>
<path fill="none" stroke="black" d="M628,-335.076C628,-319.274 628,-295.928 628,-278.977"/>
<polygon fill="black" stroke="black" points="628,-274.814 629.8,-278.814 628,-276.814 628,-278.814 628,-278.814 628,-278.814 628,-276.814 626.2,-278.814 628,-274.814 628,-274.814"/>
<text text-anchor="middle" x="625" y="-277.414" font-family="Bitstream Vera Sans, Arial" font-size="8.00">1</text>
<text text-anchor="middle" x="625.5" y="-328.676" font-family="Bitstream Vera Sans, Arial" font-size="8.00">*</text>
</g>
<!-- SubscriberList -->
<g id="node21" class="node"><title>SubscriberList</title>
<polygon fill="none" stroke="black" points="896,-335.5 896,-371.5 972,-371.5 972,-335.5 896,-335.5"/>
<text text-anchor="middle" x="934" y="-351.6" font-family="Bitstream Vera Sans, Arial" font-size="8.00">SubscriberList</text>
</g>
<!-- SubscriberList&#45;&gt;Administrator -->
<g id="edge22" class="edge"><title>SubscriberList&#45;&gt;Administrator</title>
<path fill="none" stroke="black" d="M952.708,-335.076C970.106,-318.872 996.02,-294.736 1014.31,-277.697"/>
<polygon fill="black" stroke="black" points="1017.41,-274.814 1015.71,-278.857 1015.95,-276.177 1014.48,-277.54 1014.48,-277.54 1014.48,-277.54 1015.95,-276.177 1013.26,-276.223 1017.41,-274.814 1017.41,-274.814"/>
<text text-anchor="middle" x="992.5" y="-310.6" font-family="Bitstream Vera Sans, Arial" font-size="8.00">owner</text>
<text text-anchor="middle" x="1014.41" y="-277.414" font-family="Bitstream Vera Sans, Arial" font-size="8.00">1</text>
<text text-anchor="middle" x="950.208" y="-328.676" font-family="Bitstream Vera Sans, Arial" font-size="8.00">*</text>
</g>
<!-- SubscriberList&#45;&gt;Subscription -->
<g id="edge13" class="edge"><title>SubscriberList:sw&#45;&gt;Subscription</title>
<path fill="none" stroke="black" d="M896,-334.5C892.072,-330.572 891.223,-328.892 886,-327 776.581,-287.364 476.959,-323.601 363,-300 336.8,-294.574 308.616,-284.112 286.827,-274.926"/>
<polygon fill="black" stroke="black" points="283.111,-273.346 287.497,-273.255 284.952,-274.129 286.792,-274.912 286.792,-274.912 286.792,-274.912 284.952,-274.129 286.088,-276.568 283.111,-273.346 283.111,-273.346"/>
<text text-anchor="middle" x="285.611" y="-275.946" font-family="Bitstream Vera Sans, Arial" font-size="8.00">*</text>
<text text-anchor="middle" x="893" y="-337.1" font-family="Bitstream Vera Sans, Arial" font-size="8.00">1</text>
</g>
<!-- SubscriberList&#45;&gt;Campaign -->
<g id="edge12" class="edge"><title>SubscriberList:s&#45;&gt;Campaign</title>
<path fill="none" stroke="black" d="M934,-334.5C934,-278.865 741.368,-263.041 661.78,-258.878"/>
<polygon fill="black" stroke="black" points="657.619,-258.665 661.705,-257.072 659.616,-258.767 661.613,-258.869 661.613,-258.869 661.613,-258.869 659.616,-258.767 661.522,-260.667 657.619,-258.665 657.619,-258.665"/>
<text text-anchor="middle" x="660.119" y="-261.265" font-family="Bitstream Vera Sans, Arial" font-size="8.00">*</text>
<text text-anchor="middle" x="931.5" y="-328.1" font-family="Bitstream Vera Sans, Arial" font-size="8.00">*</text>
</g>
<!-- TemplateImage -->
<g id="node23" class="node"><title>TemplateImage</title>
<polygon fill="none" stroke="black" points="550.5,-90.5 550.5,-126.5 633.5,-126.5 633.5,-90.5 550.5,-90.5"/>
<text text-anchor="middle" x="592" y="-106.6" font-family="Bitstream Vera Sans, Arial" font-size="8.00">TemplateImage</text>
</g>
<!-- Template&#45;&gt;TemplateImage -->
<g id="edge21" class="edge"><title>Template&#45;&gt;TemplateImage</title>
<path fill="none" stroke="black" d="M688.948,-165.342C670.188,-154.536 645.406,-140.262 625.594,-128.85"/>
<polygon fill="black" stroke="black" points="621.701,-126.608 626.066,-127.045 623.434,-127.606 625.167,-128.604 625.167,-128.604 625.167,-128.604 623.434,-127.606 624.269,-130.164 621.701,-126.608 621.701,-126.608"/>
<text text-anchor="middle" x="619.201" y="-129.208" font-family="Bitstream Vera Sans, Arial" font-size="8.00">*</text>
<text text-anchor="middle" x="685.948" y="-167.942" font-family="Bitstream Vera Sans, Arial" font-size="8.00">1</text>
</g>
<!-- LinkTrackMessageLink -->
<g id="node30" class="node"><title>LinkTrackMessageLink</title>
<polygon fill="none" stroke="black" points="375,-164.5 375,-200.5 485,-200.5 485,-164.5 375,-164.5"/>
<text text-anchor="middle" x="430" y="-180.6" font-family="Bitstream Vera Sans, Arial" font-size="8.00">LinkTrackMessageLink</text>
</g>
<!-- TemplateImage&#45;&gt;LinkTrackMessageLink -->
<!-- Configuration -->
<g id="node24" class="node"><title>Configuration</title>
<polygon fill="none" stroke="black" points="1767,-335.5 1767,-371.5 1841,-371.5 1841,-335.5 1767,-335.5"/>
<text text-anchor="middle" x="1804" y="-351.6" font-family="Bitstream Vera Sans, Arial" font-size="8.00">Configuration</text>
</g>
<!-- Internationalization -->
<g id="node25" class="node"><title>Internationalization</title>
<polygon fill="none" stroke="black" points="1651,-335.5 1651,-371.5 1749,-371.5 1749,-335.5 1651,-335.5"/>
<text text-anchor="middle" x="1700" y="-351.6" font-family="Bitstream Vera Sans, Arial" font-size="8.00">Internationalization</text>
</g>
<!-- LogEntry -->
<g id="node26" class="node"><title>LogEntry</title>
<polygon fill="none" stroke="black" points="1579,-335.5 1579,-371.5 1633,-371.5 1633,-335.5 1579,-335.5"/>
<text text-anchor="middle" x="1606" y="-351.6" font-family="Bitstream Vera Sans, Arial" font-size="8.00">LogEntry</text>
</g>
<!-- SendProcess -->
<g id="node27" class="node"><title>SendProcess</title>
<polygon fill="none" stroke="black" points="1489.5,-335.5 1489.5,-371.5 1560.5,-371.5 1560.5,-335.5 1489.5,-335.5"/>
<text text-anchor="middle" x="1525" y="-351.6" font-family="Bitstream Vera Sans, Arial" font-size="8.00">SendProcess</text>
</g>
<!-- UrlCache -->
<g id="node28" class="node"><title>UrlCache</title>
<polygon fill="none" stroke="black" points="1416.5,-335.5 1416.5,-371.5 1471.5,-371.5 1471.5,-335.5 1416.5,-335.5"/>
<text text-anchor="middle" x="1444" y="-351.6" font-family="Bitstream Vera Sans, Arial" font-size="8.00">UrlCache</text>
</g>
<!-- LinkTrackForward -->
<g id="node29" class="node"><title>LinkTrackForward</title>
<polygon fill="none" stroke="black" points="384.5,-90.5 384.5,-126.5 475.5,-126.5 475.5,-90.5 384.5,-90.5"/>
<text text-anchor="middle" x="430" y="-106.6" font-family="Bitstream Vera Sans, Arial" font-size="8.00">LinkTrackForward</text>
</g>
<!-- LinkTrackMessageLink&#45;&gt;Campaign -->
<g id="edge8" class="edge"><title>LinkTrackMessageLink&#45;&gt;Campaign</title>
<path fill="none" stroke="black" d="M481.194,-200.505C498.063,-206.233 516.883,-212.758 534,-219 554.184,-226.36 576.617,-235.051 594.506,-242.106"/>
<polygon fill="black" stroke="black" points="598.483,-243.677 594.102,-243.882 596.623,-242.942 594.763,-242.208 594.763,-242.208 594.763,-242.208 596.623,-242.942 595.424,-240.534 598.483,-243.677 598.483,-243.677"/>
<text text-anchor="middle" x="595.483" y="-237.277" font-family="Bitstream Vera Sans, Arial" font-size="8.00">1</text>
<text text-anchor="middle" x="483.694" y="-203.105" font-family="Bitstream Vera Sans, Arial" font-size="8.00">*</text>
</g>
<!-- LinkTrackMessageLink&#45;&gt;LinkTrackForward -->
<g id="edge9" class="edge"><title>LinkTrackMessageLink&#45;&gt;LinkTrackForward</title>
<path fill="none" stroke="black" d="M430,-164.437C430,-154.451 430,-141.749 430,-131.074"/>
<polygon fill="black" stroke="black" points="430,-126.941 431.8,-130.941 430,-128.941 430,-130.941 430,-130.941 430,-130.941 430,-128.941 428.2,-130.941 430,-126.941 430,-126.941"/>
<text text-anchor="middle" x="427" y="-129.541" font-family="Bitstream Vera Sans, Arial" font-size="8.00">1</text>
<text text-anchor="middle" x="427.5" y="-158.037" font-family="Bitstream Vera Sans, Arial" font-size="8.00">*</text>
</g>
<!-- LinkTrackUmlClick -->
<g id="node31" class="node"><title>LinkTrackUmlClick</title>
<polygon fill="none" stroke="black" points="379,-238.5 379,-274.5 471,-274.5 471,-238.5 379,-238.5"/>
<text text-anchor="middle" x="425" y="-254.6" font-family="Bitstream Vera Sans, Arial" font-size="8.00">LinkTrackUmlClick</text>
</g>
<!-- LinkTrackUmlClick&#45;&gt;Subscriber -->
<g id="edge11" class="edge"><title>LinkTrackUmlClick&#45;&gt;Subscriber</title>
<path fill="none" stroke="black" d="M397.602,-238.459C386.952,-232.077 374.553,-224.939 363,-219 348.548,-211.57 332.209,-204.153 318.082,-198.034"/>
<polygon fill="black" stroke="black" points="314.16,-196.343 318.545,-196.273 315.996,-197.135 317.833,-197.926 317.833,-197.926 317.833,-197.926 315.996,-197.135 317.121,-199.579 314.16,-196.343 314.16,-196.343"/>
<text text-anchor="middle" x="317.16" y="-198.943" font-family="Bitstream Vera Sans, Arial" font-size="8.00">1</text>
<text text-anchor="middle" x="395.102" y="-232.059" font-family="Bitstream Vera Sans, Arial" font-size="8.00">*</text>
</g>
<!-- LinkTrackUmlClick&#45;&gt;LinkTrackMessageLink -->
<g id="edge10" class="edge"><title>LinkTrackUmlClick&#45;&gt;LinkTrackMessageLink</title>
<path fill="none" stroke="black" d="M426.185,-238.437C426.878,-228.451 427.761,-215.749 428.502,-205.074"/>
<polygon fill="black" stroke="black" points="428.789,-200.941 430.307,-205.056 428.65,-202.936 428.512,-204.931 428.512,-204.931 428.512,-204.931 428.65,-202.936 426.716,-204.806 428.789,-200.941 428.789,-200.941"/>
<text text-anchor="middle" x="425.789" y="-203.541" font-family="Bitstream Vera Sans, Arial" font-size="8.00">1</text>
<text text-anchor="middle" x="423.685" y="-232.037" font-family="Bitstream Vera Sans, Arial" font-size="8.00">*</text>
</g>
</g>
</svg>
